<svg xmlns="http://www.w3.org/2000/svg">
    <symbol id="users" viewBox="0 0 20 20">
        <g>
            <path d="M18.9061 16.0937H17.0311V14.2187C17.0311 14.1156 16.9467 14.0312 16.8436 14.0312H15.7186C15.6155 14.0312 15.5311 14.1156 15.5311 14.2187V16.0937H13.6561C13.553 16.0937 13.4686 16.1781 13.4686 16.2812V17.4062C13.4686 17.5093 13.553 17.5937 13.6561 17.5937H15.5311V19.4687C15.5311 19.5718 15.6155 19.6562 15.7186 19.6562H16.8436C16.9467 19.6562 17.0311 19.5718 17.0311 19.4687V17.5937H18.9061C19.0092 17.5937 19.0936 17.5093 19.0936 17.4062V16.2812C19.0936 16.1781 19.0092 16.0937 18.9061 16.0937ZM6.75376 9.68122C6.73266 9.47731 6.72094 9.27106 6.72094 9.06247C6.72094 8.68981 6.7561 8.32653 6.82173 7.97263C6.83813 7.88825 6.7936 7.80153 6.71626 7.76638C6.39751 7.62341 6.10454 7.42653 5.85141 7.1781C5.55315 6.88889 5.31844 6.54069 5.16227 6.15571C5.0061 5.77073 4.93189 5.35742 4.94438 4.94216C4.96548 4.18981 5.26782 3.47497 5.79516 2.93591C6.37407 2.34294 7.15219 2.0195 7.97954 2.02888C8.72719 2.03591 9.44907 2.32419 9.99516 2.83513C10.1803 3.00856 10.3397 3.20075 10.4733 3.407C10.5202 3.47966 10.6116 3.51013 10.6913 3.482C11.1038 3.33903 11.5397 3.23825 11.9874 3.19138C12.1186 3.17731 12.1936 3.03669 12.135 2.9195C11.3733 1.41247 9.81704 0.371845 8.01704 0.34372C5.42016 0.303876 3.25454 2.43434 3.25454 5.03122C3.25454 6.50309 3.93188 7.8156 4.9936 8.67575C4.24829 9.02028 3.56157 9.49607 2.96626 10.0914C1.68188 11.3734 0.95532 13.0656 0.908445 14.8726C0.907819 14.8976 0.912207 14.9225 0.921349 14.9458C0.930492 14.9691 0.944204 14.9903 0.961677 15.0082C0.979151 15.0262 1.00003 15.0404 1.02309 15.0501C1.04615 15.0598 1.07092 15.0648 1.09595 15.0648H2.41079C2.51157 15.0648 2.59594 14.9851 2.59829 14.8843C2.64282 13.525 3.1936 12.2523 4.16157 11.2867C4.85063 10.5976 5.69438 10.1195 6.61548 9.88747C6.70454 9.86169 6.76548 9.77497 6.75376 9.68122ZM17.3124 9.06247C17.3124 6.49841 15.2522 4.41481 12.6975 4.37497C10.1006 4.33513 7.93735 6.4656 7.93735 9.06247C7.93735 10.5343 8.61704 11.8468 9.67641 12.707C8.92338 13.0561 8.23787 13.5353 7.65141 14.1226C6.36704 15.4047 5.64048 17.0968 5.5936 18.9015C5.59298 18.9265 5.59736 18.9514 5.60651 18.9747C5.61565 18.998 5.62936 19.0192 5.64683 19.0372C5.66431 19.0551 5.68519 19.0693 5.70825 19.079C5.73131 19.0887 5.75608 19.0937 5.7811 19.0937H7.0936C7.19438 19.0937 7.27876 19.014 7.2811 18.9132C7.32563 17.5539 7.87641 16.2812 8.84438 15.3156C9.85454 14.3054 11.1952 13.75 12.6249 13.75C15.2124 13.75 17.3124 11.6523 17.3124 9.06247ZM14.7459 11.1836C14.1788 11.7508 13.4264 12.0625 12.6249 12.0625C11.8233 12.0625 11.0709 11.7508 10.5038 11.1836C10.2207 10.902 9.99709 10.5665 9.84611 10.1969C9.69514 9.82733 9.6199 9.4312 9.62485 9.032C9.63188 8.26325 9.93891 7.52028 10.4756 6.9695C11.0381 6.39294 11.7905 6.07185 12.5944 6.06247C13.3889 6.05544 14.16 6.36481 14.7272 6.92028C15.3084 7.48981 15.6272 8.25153 15.6272 9.06247C15.6249 9.86403 15.3131 10.6164 14.7459 11.1836Z"/>
        </g>
    </symbol>
    <symbol id="clock-circle" viewBox="0 0 16 16">
        <g>
            <path d="M8 1C4.13438 1 1 4.13438 1 8C1 11.8656 4.13438 15 8 15C11.8656 15 15 11.8656 15 8C15 4.13438 11.8656 1 8 1ZM8 13.8125C4.79063 13.8125 2.1875 11.2094 2.1875 8C2.1875 4.79063 4.79063 2.1875 8 2.1875C11.2094 2.1875 13.8125 4.79063 13.8125 8C13.8125 11.2094 11.2094 13.8125 8 13.8125Z"/>
            <path d="M10.7297 9.97811L8.50156 8.36718V4.5C8.50156 4.43125 8.44531 4.375 8.37656 4.375H7.625C7.55625 4.375 7.5 4.43125 7.5 4.5V8.80311C7.5 8.84374 7.51875 8.88124 7.55156 8.90467L10.1359 10.789C10.1922 10.8297 10.2703 10.8172 10.3109 10.7625L10.7578 10.1531C10.7984 10.0953 10.7859 10.0172 10.7297 9.97811Z"/>
        </g>
    </symbol>
    <symbol id="birthday" viewBox="0 0 24 24">
        <g>
            <path d="M12.7969 8.85938H19.7812V11.2969H12.7969V8.85938ZM5.34375 12.8906H11.2031V20.1094H5.34375V12.8906ZM4.21875 8.85938H11.2031V11.2969H4.21875V8.85938ZM12.7969 12.8906H18.6562V20.1094H12.7969V12.8906Z" fill="#E6F7FF"/>
            <path d="M20.625 7.26562H17.1656C17.4844 6.76406 17.6719 6.16875 17.6719 5.53125C17.6719 3.74766 16.2211 2.29688 14.4375 2.29688C13.4672 2.29688 12.593 2.72812 12 3.40781C11.407 2.72812 10.5328 2.29688 9.5625 2.29688C7.77891 2.29688 6.32812 3.74766 6.32812 5.53125C6.32812 6.16875 6.51328 6.76406 6.83438 7.26562H3.375C2.96016 7.26562 2.625 7.60078 2.625 8.01562V12.7031C2.625 12.8062 2.70937 12.8906 2.8125 12.8906H3.75V20.9531C3.75 21.368 4.08516 21.7031 4.5 21.7031H19.5C19.9148 21.7031 20.25 21.368 20.25 20.9531V12.8906H21.1875C21.2906 12.8906 21.375 12.8062 21.375 12.7031V8.01562C21.375 7.60078 21.0398 7.26562 20.625 7.26562ZM11.2031 20.1094H5.34375V12.8906H11.2031V20.1094ZM11.2031 11.2969H4.21875V8.85938H11.2031V11.2969ZM11.2031 7.17188H9.5625C8.65781 7.17188 7.92188 6.43594 7.92188 5.53125C7.92188 4.62656 8.65781 3.89062 9.5625 3.89062C10.4672 3.89062 11.2031 4.62656 11.2031 5.53125V7.17188ZM12.7969 5.53125C12.7969 4.62656 13.5328 3.89062 14.4375 3.89062C15.3422 3.89062 16.0781 4.62656 16.0781 5.53125C16.0781 6.43594 15.3422 7.17188 14.4375 7.17188H12.7969V5.53125ZM18.6562 20.1094H12.7969V12.8906H18.6562V20.1094ZM19.7812 11.2969H12.7969V8.85938H19.7812V11.2969Z" fill="#1890FF"/>
        </g>
    </symbol>
</svg>
